<svg version="1.1" width="100%" height="100%" xmlns="http://www.w3.org/2000/svg" viewBox="0 0 339.7 339.7">
<path fill="currentColor" d="M276.9,79.6c0,9.2-7.6,16.1-16.1,16.1c-9.2,0-16.1-7.6-16.1-16.1c0-9.2,7.6-16.1,16.1-16.1
	C269.3,62.7,276.9,70.4,276.9,79.6z M339.7,86.4v166.8c0,47.4-39,86.4-86.4,86.4H86.4C39,339.7,0,300.6,0,253.2V86.4
	C0,39,39,0,86.4,0h166.8C301.4,0,339.7,39,339.7,86.4z M307.5,86.4c0-29.8-24.5-54.3-54.3-54.3H86.4c-29.8,0-54.3,24.5-54.3,54.3
	v166.8c0,29.8,24.5,54.3,54.3,54.3h166.8c30.6,0,55.1-24.5,55.1-54.3L307.5,86.4L307.5,86.4z M258.6,169.8c0-49-39.8-88.7-88.7-88.7
	s-88.7,39.8-88.7,88.7s39.8,88.7,88.7,88.7S258.6,218.8,258.6,169.8z M226.4,169.8c0,31.4-25.2,56.6-56.6,56.6s-56.6-25.2-56.6-56.6
	s25.2-56.6,56.6-56.6S226.4,138.5,226.4,169.8L226.4,169.8z"/>
</svg>
