<svg version="1.1" width="100%" height="100%" xmlns="http://www.w3.org/2000/svg" viewBox="0 0 398.6 364.9">
<path fill="currentColor" d="M204.3,286.9c-36,0-73.4-17.6-88.7-42.1c-4.6-7.6-2.3-17.6,5.4-22.2c7.7-4.6,17.6-2.3,22.2,5.4
	c10.7,17.6,42.8,29.8,69.6,26.8c12.2-1.5,28.3-6.9,35.2-23.7c1.5-4.6,3.1-10.7,0.8-13.8c-5.4-9.2-29.8-13.8-49.7-17.6
	c-36.7-6.9-81.9-15.3-85.7-57.4c-2.3-27.5,13.8-49,42.8-58.9c49.7-16.1,109.4,5.4,127,34.4c4.6,7.6,2.3,17.6-5.4,22.2
	s-17.6,2.3-22.2-5.4c-11.5-19.1-59.7-29.8-89.5-19.9c-22.2,6.9-21.4,20.7-20.7,26c1.5,16.1,24.5,22.2,59.7,28.3
	c30.6,6.1,59.7,11.5,71.9,32.9c6.1,11.5,6.9,25.2,1.5,40.5c-9.2,25.2-31.4,41.3-61.2,45.1C211.9,286.9,207.3,286.9,204.3,286.9
	L204.3,286.9z M291.5,364.9c-13.8,0-27.5-2.3-39.8-7.6c-17.6,5.4-35.2,7.6-53.6,7.6c-99.4,0-181.3-81.9-181.3-182.8
	c0-6.1,0-12.2,0.8-18.4C6.1,146.1,0,126.2,0,105.6C0,47.4,47.4,0,105.6,0c13.8,0,27.5,2.3,39.8,7.7C162.9,2.3,180.5,0,198.9,0
	c100.2,0,182.8,81.9,182.8,182.8c0,6.1,0,12.2-0.8,18.4c11.5,17.6,17.6,37.5,17.6,58.1C397.8,316.7,351.1,364.9,291.5,364.9
	L291.5,364.9z M251.7,323.6c2.3,0,4.6,0.8,6.9,1.5c9.9,4.6,20.7,7.6,32.1,7.6c40.5,0,73.4-32.9,73.4-73.4c0-16.1-5.4-31.4-15.3-44.4
	c-2.3-3.1-3.8-7.6-3.1-11.5c0.8-6.9,1.5-13.8,1.5-20.7c0-82.6-67.3-150.7-150.7-150.7c-16.8,0-32.9,3.1-49,8.4
	c-3.8,1.5-8.4,0.8-12.2-0.8c-9.9-4.6-20.7-7.6-32.1-7.6c-40.5,0-73.4,32.9-73.4,73.4c0,16.1,5.4,31.4,15.3,44.4
	c2.3,3.1,3.8,7.6,3.1,11.5c-0.8,6.9-1.5,13.8-1.5,20.7c0,82.6,67.3,150.7,150.7,150.7c16.8,0,32.9-3.1,49-8.4
	C250.2,323.6,251.7,323.6,251.7,323.6L251.7,323.6z"/>
</svg>
