<svg version="1.1" width="100%" height="100%" xmlns="http://www.w3.org/2000/svg" viewBox="0 0 536 536.3">
	<path class="st0" fill="none" stroke="currentColor" stroke-width="25.5" stroke-linejoin="round" stroke-miterlimit="102" d="M523.1,268.2c0,140.8-114.2,255-255,255c-140.8,0-255-114.2-255-255c0-140.8,114.2-255,255-255
	C408.9,13.2,523.1,127.3,523.1,268.2z M277.2,201.4c-24.8,10.3-74.4,31.7-148.7,64.1c-12.1,4.8-18.4,9.5-19,14.1
	c-1,7.8,8.7,10.8,22,15c1.8,0.6,3.7,1.2,5.6,1.8c13,4.2,30.5,9.2,39.6,9.4c8.3,0.2,17.5-3.2,27.7-10.2
	c69.5-46.9,105.3-70.6,107.6-71.1c1.6-0.4,3.8-0.8,5.3,0.5c1.5,1.3,1.3,3.8,1.2,4.5c-1,4.1-39.1,39.6-58.9,57.9
	c-6.2,5.7-10.5,9.8-11.4,10.7c-2,2.1-4,4-6,5.9c-12.1,11.7-21.2,20.4,0.5,34.7c10.4,6.9,18.7,12.5,27.1,18.2
	c9.1,6.2,18.1,12.3,29.9,20c3,2,5.8,4,8.6,6c10.6,7.5,20.1,14.3,31.8,13.2c6.8-0.6,13.9-7,17.4-26.1c8.4-45.2,25.1-143,28.9-183.3
	c0.3-3.5-0.1-8.1-0.4-10c-0.3-2-1-4.8-3.6-6.9c-3.1-2.5-7.8-3-9.9-3C362.7,166.8,348,172,277.2,201.4z"/>
</svg>
